<svg width="25" height="32" viewBox="0 0 25 32" fill="none" xmlns="http://www.w3.org/2000/svg">
<path d="M12.5459 0.5C14.9388 0.5 16.5905 1.34491 17.5957 2.68848C18.6127 4.0481 19.0265 5.99627 18.7676 8.29785C18.554 10.1966 18.0421 12.2564 17.0518 13.8271C16.0748 15.3764 14.6483 16.4334 12.5459 16.4336C10.4436 16.4337 9.01784 15.3773 8.04102 13.8281C7.05056 12.2572 6.53903 10.1967 6.3252 8.29785C6.06629 5.99618 6.47999 4.04809 7.49707 2.68848C8.50232 1.34495 10.1536 0.500071 12.5459 0.5Z" stroke="#ED7117"/>
<path d="M17.9717 16.7734C18.3076 16.9383 18.659 17.0902 19.0342 17.2402C19.5408 17.443 20.1532 17.6268 20.625 17.7979C21.1337 17.9823 21.5876 18.1857 21.9717 18.4775C22.6172 18.9681 23.0599 19.7976 23.3789 20.7891C23.696 21.7745 23.8674 22.8396 24.0254 23.7471C24.2794 25.206 24.4484 26.6913 24.498 28.166C24.5146 28.6597 24.4044 28.8231 24.2969 28.9199C24.2248 28.9848 24.1193 29.0492 23.9551 29.1221C23.7876 29.1963 23.5938 29.265 23.3447 29.3564C22.1772 29.7852 20.9662 30.1061 19.7373 30.3701C17.3516 30.8831 14.9143 31.2713 12.499 31.2891C10.0844 31.2712 7.64786 30.883 5.2627 30.3701C4.18724 30.1389 3.12567 29.8639 2.09473 29.5117L1.6543 29.3564C1.40553 29.265 1.21224 29.1963 1.04492 29.1221C0.880776 29.0492 0.775193 28.9848 0.703125 28.9199C0.595628 28.823 0.485426 28.6596 0.501953 28.166C0.551471 26.6914 0.721557 25.2061 0.975586 23.7471C1.13354 22.8399 1.30507 21.7754 1.62207 20.79C1.94114 19.7984 2.38357 18.9682 3.0293 18.4775C3.41338 18.1857 3.86721 17.9823 4.37598 17.7979C4.84766 17.6269 5.45935 17.4429 5.96582 17.2402C6.34063 17.0903 6.69167 16.9381 7.02734 16.7734C8.49018 18.2638 10.3588 19.0459 12.5 19.0459C14.6416 19.0457 16.5089 18.2632 17.9717 16.7734Z" stroke="#ED7117"/>
</svg>
