<svg width="23" height="23" viewBox="0 0 23 23" fill="none" xmlns="http://www.w3.org/2000/svg">
<path d="M22.4999 15.2066V20.023C22.5036 20.3771 22.4303 20.7278 22.285 21.051C22.1396 21.3741 21.9257 21.6621 21.658 21.895C21.3902 22.128 21.075 22.3004 20.7339 22.4003C20.3929 22.5003 20.0341 22.5254 19.6824 22.4741C14.8065 21.8502 10.2776 19.628 6.80932 16.1577C3.34102 12.6873 1.13048 8.16618 0.526011 3.30654C0.47461 2.9572 0.499583 2.60091 0.599222 2.26208C0.698861 1.92324 0.870814 1.60984 1.10331 1.34334C1.33581 1.07683 1.62337 0.863503 1.94631 0.717954C2.26924 0.572406 2.61994 0.498071 2.97439 0.500038H7.7358C8.03995 0.4982 8.33401 0.608654 8.56122 0.810082C8.78843 1.01151 8.93268 1.28963 8.96614 1.59077C9.08823 3.19694 9.50525 4.76715 10.1965 6.22334C10.315 6.49912 10.3279 6.80863 10.2326 7.09322C10.1374 7.37782 9.94067 7.61774 9.67973 7.76752L8.62164 8.36804C8.46913 8.4516 8.33615 8.56643 8.23149 8.70497C8.12682 8.8435 8.05286 9.00258 8.01449 9.1717C7.97612 9.34081 7.9742 9.51611 8.00887 9.68602C8.04355 9.85592 8.11402 10.0166 8.21563 10.1573C9.43284 11.9334 10.9726 13.4671 12.7556 14.6796C12.8969 14.7808 13.0582 14.851 13.2287 14.8856C13.3993 14.9201 13.5753 14.9182 13.7451 14.88C13.9149 14.8417 14.0746 14.7681 14.2136 14.6638C14.3527 14.5596 14.468 14.4271 14.5519 14.2752L15.1547 13.2212C15.3141 12.9579 15.567 12.7638 15.8633 12.6776C16.1595 12.5913 16.4775 12.6191 16.7542 12.7555C18.2161 13.444 19.7924 13.8594 21.4049 13.981C21.7072 14.0144 21.9864 14.1581 22.1886 14.3844C22.3908 14.6107 22.5017 14.9036 22.4999 15.2066Z" stroke="white" stroke-linecap="round" stroke-linejoin="round"/>
</svg>
