<svg width="20" height="20" viewBox="0 0 20 20" fill="none" xmlns="http://www.w3.org/2000/svg">
<path d="M17.3887 0C18.0812 0 18.7457 0.27497 19.2354 0.764648C19.725 1.25433 20 1.91882 20 2.61133V13.167C19.9999 13.8593 19.7248 14.5231 19.2354 15.0127C18.7457 15.5024 18.0812 15.7773 17.3887 15.7773H4.92969L0.853516 19.8535C0.710517 19.9965 0.495431 20.0393 0.308594 19.9619C0.121793 19.8845 0 19.7022 0 19.5V2.61133C0 1.91882 0.27497 1.25433 0.764648 0.764648C1.25433 0.27497 1.91882 0 2.61133 0H17.3887ZM2.61133 1C2.18403 1 1.77382 1.16954 1.47168 1.47168C1.16954 1.77382 1 2.18403 1 2.61133V18.293L4.36914 14.9238L4.44434 14.8613C4.52591 14.8069 4.62315 14.7773 4.72266 14.7773H17.3887C17.816 14.7773 18.2262 14.6078 18.5283 14.3057C18.8303 14.0036 18.9999 13.5941 19 13.167V2.61133C19 2.18403 18.8305 1.77382 18.5283 1.47168C18.2262 1.16954 17.816 1 17.3887 1H2.61133ZM8.97754 3.64648C9.43946 3.6465 9.86871 3.71275 10.2646 3.84473C10.6678 3.96938 11.031 4.15947 11.3535 4.41602C11.4342 4.48202 11.4892 4.55946 11.5186 4.64746C11.5479 4.72811 11.5513 4.809 11.5293 4.88965C11.5073 4.96288 11.4668 5.02489 11.4082 5.07617C11.3569 5.12751 11.2872 5.15673 11.1992 5.16406C11.1186 5.17137 11.0274 5.14206 10.9248 5.07617C10.6316 4.85626 10.3269 4.69886 10.0117 4.60352C9.69651 4.50089 9.34795 4.44926 8.9668 4.44922C8.57813 4.44922 8.2401 4.50767 7.9541 4.625C7.67545 4.74233 7.45527 4.91525 7.29395 5.14258C7.14013 5.36243 7.06354 5.61904 7.06348 5.91211C7.06348 6.26411 7.17015 6.54271 7.38281 6.74805C7.60279 6.95334 7.958 7.10389 8.44922 7.19922L9.59375 7.44141C10.3342 7.59541 10.8805 7.83023 11.2324 8.14551C11.5916 8.45344 11.7714 8.87501 11.7715 9.41016C11.7715 9.73282 11.7052 10.0304 11.5732 10.3018C11.4412 10.573 11.2502 10.8079 11.001 11.0059C10.7518 11.1963 10.4513 11.3427 10.0996 11.4453C9.74761 11.548 9.35113 11.5996 8.91113 11.5996C8.56658 11.5996 8.22931 11.5704 7.89941 11.5117C7.56954 11.4531 7.2615 11.3687 6.97559 11.2588C6.69711 11.1489 6.44401 11.0093 6.2168 10.8408C6.1288 10.7748 6.06596 10.7008 6.0293 10.6201C6.00006 10.5322 5.99316 10.4477 6.00781 10.3672C6.02982 10.2794 6.06596 10.206 6.11719 10.1475C6.17581 10.0888 6.24559 10.0562 6.32617 10.0488C6.40684 10.0415 6.49549 10.0663 6.59082 10.125C6.92079 10.3596 7.27252 10.5326 7.64648 10.6426C8.02039 10.7452 8.44195 10.7969 8.91113 10.7969C9.57096 10.7969 10.0587 10.6755 10.374 10.4336C10.6967 10.1843 10.8584 9.85743 10.8584 9.4541C10.8583 9.12429 10.7404 8.86783 10.5059 8.68457C10.2785 8.49402 9.89393 8.34336 9.35156 8.2334L8.20703 8.00293C7.5178 7.85626 7.00088 7.61708 6.65625 7.28711C6.31907 6.9498 6.15039 6.50252 6.15039 5.94531C6.15041 5.60079 6.22013 5.28931 6.35938 5.01074C6.49871 4.72474 6.69305 4.48218 6.94238 4.28418C7.19161 4.07898 7.48855 3.92149 7.83301 3.81152C8.17767 3.70152 8.55954 3.64648 8.97754 3.64648ZM13.7324 4.43848C13.8718 4.43848 13.9784 4.4789 14.0518 4.55957C14.1323 4.6329 14.1729 4.74312 14.1729 4.88965V6.1543H15.5586C15.6832 6.15432 15.7788 6.18355 15.8447 6.24219C15.9106 6.30079 15.9433 6.38531 15.9434 6.49512C15.9434 6.60511 15.9107 6.69377 15.8447 6.75977C15.7788 6.81841 15.6832 6.84763 15.5586 6.84766H14.1729V9.56445C14.1729 9.98245 14.2605 10.3015 14.4365 10.5215C14.6125 10.734 14.8982 10.8407 15.2939 10.8408C15.4333 10.8408 15.5512 10.8262 15.6465 10.7969C15.7491 10.7675 15.8334 10.7529 15.8994 10.7529C15.9654 10.7456 16.0205 10.7671 16.0645 10.8184C16.1084 10.8696 16.1308 10.9576 16.1309 11.082C16.1309 11.17 16.1118 11.2509 16.0752 11.3242C16.0459 11.3976 15.9908 11.4492 15.9102 11.4785C15.8222 11.5078 15.7051 11.5337 15.5586 11.5557C15.4194 11.585 15.2911 11.5996 15.1738 11.5996C14.7558 11.5996 14.4032 11.5265 14.1172 11.3799C13.8386 11.2259 13.6296 11.0057 13.4902 10.7197C13.3509 10.4264 13.2812 10.0703 13.2812 9.65234V6.84766H12.5439C12.4197 6.84758 12.3247 6.81815 12.2588 6.75977C12.1928 6.69377 12.1592 6.60512 12.1592 6.49512C12.1593 6.3853 12.1929 6.30079 12.2588 6.24219C12.3247 6.1838 12.4197 6.15437 12.5439 6.1543H13.2812V4.88965C13.2812 4.74304 13.3217 4.6329 13.4023 4.55957C13.483 4.4789 13.5931 4.43848 13.7324 4.43848Z" fill="#ED7117"/>
</svg>
